<?xml version="1.0" encoding="UTF-8" standalone="no"?>
<!DOCTYPE svg PUBLIC "-//W3C//DTD SVG 1.1//EN" "http://www.w3.org/Graphics/SVG/1.1/DTD/svg11.dtd">
<svg width="100%" height="100%" viewBox="0 0 1543 1703" version="1.1" xmlns="http://www.w3.org/2000/svg" xmlns:xlink="http://www.w3.org/1999/xlink" xml:space="preserve" xmlns:serif="http://www.serif.com/" style="fill-rule:evenodd;clip-rule:evenodd;stroke-linecap:round;stroke-linejoin:round;stroke-miterlimit:1.5;">
    <g transform="matrix(1,0,0,1,-386.197,-181.567)">
        <path d="M916.11,1845.51C912.426,1817.07 913.88,1776.87 925.939,1721.92C944.206,1638.69 973.591,1574.31 991.518,1578.24C1009.45,1582.18 1009.17,1652.94 990.902,1736.18C982.748,1773.34 972.377,1806.73 961.799,1831.98C970.029,1834.29 971.806,1842.08 981.286,1846.36C1010.53,1859.56 1038.84,1872.2 1035.31,1880.01C1031.78,1887.83 1005.17,1883.45 975.921,1870.25C966.211,1865.86 957.423,1861.05 950.145,1856.3C949.41,1857.61 948.677,1858.87 947.948,1860.08C954.678,1861.85 958.421,1863.8 958.421,1865.85C958.421,1868.76 955.291,1870.13 942.363,1872.38C937.787,1877.14 920.278,1877.33 916.506,1876.5C914.53,1876.07 901.483,1879.83 899.949,1877.84C878.242,1880.22 869.16,1880.03 837.078,1880.03C770.107,1880.03 715.735,1873.67 715.735,1865.85C715.735,1858.03 770.107,1851.67 837.078,1851.67C865.961,1851.67 884.492,1848.95 916.11,1845.51Z" style="fill:rgb(231,87,21);"/>
        <g transform="matrix(0.991042,0,0,1,10.5299,0)">
            <path d="M1031.73,1878.6C1021.27,1865.78 1011.41,1864.29 1000.95,1864.29C974.35,1864.29 920.749,1867.29 920.749,1851.67C920.749,1836.05 958.851,1834.24 985.452,1834.24C996.795,1834.24 1031.31,1827.48 1039.55,1831.34C1033.61,1793.11 1024,1738.61 1024,1675.49C1024,1560.47 1036.5,1467.09 1051.89,1467.09C1067.28,1467.09 1079.78,1560.47 1079.78,1675.49C1079.78,1714.06 1078.37,1750.2 1075.92,1781.2C1087.9,1784.97 1102.26,1790.94 1117.19,1798.62C1153.24,1817.17 1179.13,1838.76 1174.99,1846.81C1170.85,1854.87 1137.37,1839.13 1101.33,1820.58C1096.18,1817.93 1092.08,1822.44 1087.41,1819.71C1086.41,1828.4 1083.62,1830.02 1078.69,1839.96C1073.68,1850.05 1067.25,1866.88 1060.83,1872.94C1058.02,1880.04 1055.01,1883.89 1051.89,1883.89C1050.51,1883.89 1049.15,1883.14 1047.82,1881.68C1043.36,1883.39 1045.36,1885.62 1041.87,1883.89C1040.34,1883.13 1032.85,1879.97 1031.73,1878.6Z" style="fill:rgb(231,87,21);"/>
        </g>
        <path d="M484.311,253.241C487.428,242.464 492.447,232.835 499.442,223.683C514.545,203.922 538.468,192.536 562.194,187.117C621.925,173.473 694.823,183.287 733.628,235.656C775.448,272.405 821.773,394.316 864.537,579.331C894.593,636.627 934.084,688.229 969.855,741.882C990.386,772.678 1003.85,807.445 1024,838.463C1069.23,868.02 1116.13,907.765 1140.37,954.813C1189.18,997.397 1223.8,1053.04 1267.65,1100.24C1300.65,1135.76 1342.18,1162.43 1372.39,1200.71C1408.95,1236.11 1445.12,1271.91 1480.7,1308.28C1519.31,1347.75 1554.01,1391.35 1596.23,1427.24C1630.64,1456.48 1666.82,1484.57 1704.82,1509.04C1738.15,1530.5 1772.78,1549.88 1806.27,1571.1C1840.85,1593.01 1869.22,1623.4 1892.74,1656.64C1897.28,1663.05 1901.41,1669.74 1905.43,1676.49C1906.12,1677.65 1906.87,1681.06 1905.65,1682.29C1903.72,1684.24 1901.26,1685.63 1898.81,1686.87C1895.79,1688.4 1892.54,1689.46 1889.33,1690.54C1893.56,1696.86 1899.09,1702.2 1904.08,1707.93C1909.09,1713.67 1914.46,1719.1 1919.34,1724.96C1922.23,1728.44 1920.34,1734.09 1915.28,1733.33C1904.58,1731.73 1887.52,1727.04 1876.67,1726.27L1876.64,1726.55L1876.62,1726.78C1883.83,1733.93 1891.06,1741.05 1898.04,1748.41C1909.26,1760.26 1921.49,1772.79 1927.7,1788.3C1930.76,1795.93 1927.59,1806.21 1918.15,1806.66C1911.9,1806.95 1905.59,1806.79 1899.41,1805.86C1890.87,1804.58 1882.46,1802.46 1874.16,1800.08C1864.1,1797.19 1854.19,1793.78 1844.41,1790.08C1853.89,1801.58 1863.88,1812.65 1873.44,1824.09C1876.78,1828.08 1886.26,1840.65 1879.41,1845.47C1876.51,1847.5 1870.06,1847.61 1867.54,1847.61C1865.09,1847.61 1862.63,1847.39 1860.24,1846.87C1832.04,1840.75 1805.03,1830.21 1779.61,1816.53C1780.22,1819.52 1783.5,1823.02 1785.61,1824.94C1792.56,1831.28 1799.74,1837.36 1806.75,1843.64C1807.64,1844.45 1810.75,1847 1809.54,1848.92C1808.46,1850.63 1803.09,1851.8 1801.39,1851.66C1791.69,1850.85 1783.9,1849.07 1775.19,1844.59C1722.41,1817.44 1673.59,1783.21 1628.32,1744.94C1614.12,1732.94 1600.19,1720.63 1586.41,1708.16C1558.3,1682.73 1532.24,1653.94 1498.52,1635.54C1465.26,1617.38 1427.08,1610.79 1391.28,1600.04C1358.68,1590.24 1328.56,1573.36 1299.84,1555.49C1249.94,1590.57 1173.84,1578.41 1096.07,1571.45C1093.64,1601.07 1044.63,1620.15 1024,1627.59C1011.25,1653.28 1014.21,1655.8 1001.85,1681.69C989.768,1707 946.481,1700.95 936.626,1676.79C927.549,1654.53 929.323,1630.65 927.748,1607.19C925.413,1572.42 919.032,1537.2 901.707,1506.46C870.697,1491.24 851.084,1461.65 824.685,1440.55C807.001,1426.41 787.911,1414.06 770.478,1399.61C739.136,1373.64 711.593,1343.44 686.294,1311.64C603.215,1238.87 540.422,1138.12 527.011,1027.14C519.574,965.6 525.59,903.474 535.336,842.58C542.153,799.991 548.952,757.394 556.644,714.954C562.971,680.046 570.331,644.36 587.103,612.674C588.392,588.12 590.27,564.241 592.687,541.208C574.154,520.123 583.643,495.979 574.842,466.082C576.939,459.222 571.867,451.123 569.595,443.515C569.506,442.574 569.253,441.541 568.847,440.43C568.635,439.24 568.531,438.068 568.573,436.922C559.434,425.515 564.925,431.5 555.316,422.083C554.782,421.56 552.289,419.351 552.898,419.786C553.813,420.439 551.188,417.939 549.193,416.792C548.494,416.201 547.782,415.61 547.056,415.02C547.045,414.655 547.004,414.31 546.871,414.111C546.138,413.005 544.902,412.327 544.007,411.348C544.007,411.348 536.739,404.7 532.302,402.777C528.786,401.253 523.001,397.342 517.916,395.792C508.601,392.028 489.531,391.633 468.17,395.4C458.954,397.025 450.403,399.232 443.06,401.756C439.697,402.292 436.296,403.726 433.829,405.14C433.096,405.56 432.397,405.965 431.729,406.358C426.684,408.802 422.795,411.372 420.42,413.892C416.556,416.88 413.048,420.063 406.962,425.046C404.957,426.687 397.231,434.666 393.159,431.144C376.195,416.466 394.455,388.857 403.324,376.779C408.516,369.71 414.71,363.405 420.95,357.242C424.337,353.897 428.278,351.142 431.97,348.129C440.34,346.795 453.964,332.665 465.08,312.978C465.39,312.43 465.695,311.881 465.996,311.334C467.185,303.282 469.067,294.616 471.652,285.705C475.184,273.535 479.581,262.453 484.311,253.241Z" style="fill:rgb(151,180,214);"/>
        <g id="eye">
            <g transform="matrix(1,0,0,1,6.02344,2.19107)">
                <circle cx="588.45" cy="271.875" r="22.976" style="fill:rgb(186,118,57);stroke:rgb(142,46,2);stroke-width:3.96px;"/>
            </g>
            <g transform="matrix(0.465636,0,0,0.465636,320.47,147.471)">
                <circle cx="588.45" cy="271.875" r="22.976" style="stroke:rgb(231,87,21);stroke-width:8.5px;"/>
            </g>
        </g>
    </g>
</svg>
